<?xml version="1.0" standalone="no"?>
<!DOCTYPE svg PUBLIC "-//W3C//DTD SVG 20010904//EN"
 "http://www.w3.org/TR/2001/REC-SVG-20010904/DTD/svg10.dtd">
<svg version="1.0" xmlns="http://www.w3.org/2000/svg"
 width="546.000000pt" height="457.000000pt" viewBox="0 0 546.000000 457.000000"
 preserveAspectRatio="xMidYMid meet">

<g transform="translate(0.000000,457.000000) scale(0.100000,-0.100000)"
fill="#000000" stroke="none">
<path d="M2745 4546 c-3 -9 -8 -24 -11 -33 -4 -10 -12 -43 -20 -73 -7 -30 -20
-81 -28 -112 -9 -32 -23 -84 -31 -115 -9 -32 -20 -71 -25 -88 -10 -32 -19 -66
-70 -260 -54 -202 -58 -217 -80 -305 -12 -47 -26 -92 -30 -100 -10 -18 -94
-45 -400 -125 -148 -39 -169 -44 -280 -75 -88 -25 -282 -76 -360 -95 -30 -7
-82 -21 -115 -30 -33 -10 -82 -23 -110 -30 -27 -6 -57 -14 -65 -18 -8 -3 -53
-15 -100 -27 -47 -12 -107 -28 -135 -35 -27 -8 -84 -23 -125 -34 -41 -11 -120
-32 -175 -46 -55 -15 -137 -37 -183 -50 -45 -12 -84 -24 -87 -27 -5 -5 9 -70
41 -188 8 -30 21 -80 29 -110 12 -49 63 -237 86 -315 12 -45 34 -128 64 -245
15 -58 30 -114 35 -125 5 -11 13 -40 19 -65 5 -25 21 -88 36 -140 37 -135 49
-180 85 -315 18 -66 38 -144 46 -172 8 -29 21 -79 30 -110 8 -32 19 -71 24
-88 11 -37 38 -140 49 -180 8 -34 15 -35 103 -10 78 21 281 75 453 120 28 7
93 25 145 39 52 15 147 40 210 57 93 24 122 36 150 63 19 18 47 40 62 49 30
19 123 23 133 7 10 -16 64 -12 140 11 38 11 90 27 115 34 25 7 62 17 83 20
l37 7 0 -568 c0 -313 4 -575 9 -583 6 -9 11 -10 15 -2 4 6 33 18 64 27 31 9
63 21 70 26 7 7 12 35 12 76 0 76 13 91 76 92 52 0 65 -15 70 -82 3 -28 6 -54
9 -56 2 -3 18 1 34 8 23 9 38 9 62 1 17 -6 35 -8 39 -6 5 3 9 30 9 59 0 82 11
96 76 96 63 0 88 -23 78 -71 -3 -16 -2 -49 1 -74 6 -36 11 -45 27 -45 23 0 24
-8 5 -35 -7 -11 -16 -30 -20 -42 -7 -20 -4 -23 21 -22 17 1 21 3 11 6 -25 6
-22 18 7 37 17 11 25 26 25 46 0 21 5 30 16 30 12 0 15 -8 12 -32 -3 -29 0
-33 20 -30 17 3 22 -2 22 -18 0 -17 -4 -20 -21 -15 -15 5 -20 3 -17 -6 9 -26
47 -22 59 5 10 21 9 29 -4 44 -21 23 -21 29 -2 48 10 10 15 35 15 73 0 31 5
62 12 69 15 15 92 16 121 1 12 -7 41 -30 65 -51 43 -40 60 -44 72 -17 34 73
34 74 79 77 59 4 95 -12 125 -59 15 -21 32 -39 40 -39 7 0 31 21 52 48 53 65
63 71 112 67 47 -3 64 -18 82 -72 14 -41 38 -43 82 -4 18 15 47 36 65 45 37
19 114 21 131 4 7 -7 12 -40 12 -80 0 -67 -3 -73 -37 -69 -8 1 -13 -10 -13
-27 0 -17 -10 -38 -25 -52 -14 -13 -25 -27 -25 -32 0 -15 333 -10 377 6 35 12
44 12 72 -2 26 -12 41 -13 78 -5 29 7 56 8 71 2 13 -5 52 -9 88 -9 l64 0 0
1085 0 1085 -156 0 c-100 0 -153 4 -149 10 3 5 20 63 36 127 17 65 37 143 45
173 8 30 19 72 25 93 5 21 23 86 40 145 17 59 37 132 44 162 8 30 21 81 29
113 9 31 23 83 32 115 8 31 20 77 25 102 6 25 14 54 19 65 4 11 13 38 18 60 5
22 22 85 37 140 32 116 43 161 80 305 14 58 30 113 35 122 8 15 3 19 -33 28
-23 6 -60 15 -82 22 -129 36 -196 54 -345 93 -165 43 -236 63 -275 75 -16 5
-64 18 -105 29 -41 10 -120 31 -175 46 -55 15 -134 35 -175 46 -111 30 -181
49 -215 59 -41 12 -179 49 -370 100 -176 46 -227 60 -260 69 -16 5 -77 21
-135 36 -58 14 -112 30 -121 35 -9 4 -37 11 -62 15 -38 6 -48 4 -52 -9z m253
-143 c18 -11 22 -20 17 -36 -3 -12 -12 -43 -19 -70 -7 -26 -16 -50 -19 -53 -3
-3 -33 2 -67 12 l-62 17 7 36 c12 66 30 110 45 115 23 6 72 -4 98 -21z m266
-62 c13 -6 27 -15 31 -21 7 -11 -13 -120 -25 -133 -4 -5 -36 -1 -70 9 l-62 17
7 36 c8 46 26 94 39 104 11 7 38 3 80 -12z m315 -90 c25 -14 26 -32 4 -100
-16 -50 -17 -52 -47 -46 -78 16 -98 26 -93 49 3 11 9 38 12 59 12 63 53 76
124 38z m-649 -74 c52 -14 154 -41 225 -61 116 -32 205 -57 315 -86 19 -5 94
-26 165 -45 72 -20 180 -49 240 -65 165 -43 344 -90 395 -105 25 -7 88 -24
140 -38 52 -14 122 -33 155 -42 83 -23 279 -74 340 -89 48 -12 50 -14 49 -47
-1 -19 -9 -61 -18 -94 -9 -33 -23 -85 -31 -115 -8 -30 -21 -81 -29 -112 -9
-32 -23 -84 -31 -115 -9 -32 -20 -71 -25 -88 -5 -16 -18 -64 -29 -105 -10 -41
-32 -120 -46 -175 -15 -55 -33 -122 -40 -150 -7 -27 -25 -93 -39 -145 -15 -52
-34 -120 -42 -150 -8 -30 -20 -77 -26 -103 -13 -57 -1 -57 -183 -7 -160 43
-219 59 -285 75 -58 14 -104 27 -260 70 -52 15 -117 33 -145 40 -138 36 -247
65 -315 84 -84 23 -352 95 -417 112 -39 10 -43 14 -57 63 -23 79 -43 151 -76
276 -16 63 -34 129 -39 145 -6 17 -22 75 -36 130 -15 55 -33 125 -41 155 -8
30 -18 69 -23 85 -6 25 -12 30 -37 28 -16 -1 -46 -7 -67 -14 -20 -7 -40 -10
-43 -6 -8 8 0 41 71 297 15 52 31 115 36 140 6 25 14 54 19 65 5 11 14 41 19
68 26 112 34 143 42 153 10 13 11 12 169 -29z m922 7 c26 -5 38 -12 42 -28 5
-20 -16 -122 -28 -133 -6 -6 -114 22 -124 32 -3 3 0 24 7 47 29 95 27 94 103
82z m293 -78 c21 -8 43 -23 48 -34 13 -28 -18 -132 -40 -132 -20 0 -96 21
-106 30 -11 9 13 111 31 133 18 20 17 20 67 3z m314 -103 c56 -18 60 -27 42
-107 -14 -58 -21 -62 -96 -41 -54 14 -65 21 -65 39 0 30 29 109 43 118 16 10
18 10 76 -9z m284 -61 c35 -6 53 -36 39 -66 -6 -11 -13 -38 -17 -59 -6 -37 -6
-38 -43 -31 -20 4 -52 13 -70 21 -27 11 -32 18 -27 36 28 94 46 122 75 110 8
-3 27 -8 43 -11z m306 -98 c48 -10 56 -35 35 -105 -10 -32 -22 -59 -27 -59
-17 0 -117 31 -121 38 -2 4 2 25 10 47 7 22 14 48 14 57 0 26 31 33 89 22z
m-2343 -452 c18 -12 32 -44 39 -93 7 -46 7 -46 -27 -53 -18 -4 -48 -8 -67 -9
-34 -2 -35 -1 -47 53 -16 67 -11 88 24 96 15 3 32 7 37 9 17 6 30 5 41 -3z
m-308 -75 c15 -18 -18 -135 -41 -149 -33 -18 -61 -6 -70 32 -23 92 -22 99 14
115 43 18 83 19 97 2z m-272 -85 c12 -7 50 -120 43 -126 -7 -6 -143 -45 -146
-42 -10 10 -33 122 -28 136 8 26 105 50 131 32z m-300 -102 c25 -78 25 -98 1
-105 -12 -3 -39 -11 -61 -17 -47 -14 -60 -1 -71 68 -11 77 4 94 85 90 31 -1
36 -5 46 -36z m891 -30 c6 -30 19 -81 28 -112 16 -60 29 -109 63 -238 11 -41
19 -76 17 -78 -3 -3 -77 15 -215 53 -52 15 -113 31 -135 36 -77 18 -97 30 -91
53 3 12 21 79 40 149 19 71 38 133 43 138 13 13 184 58 213 56 21 -2 26 -9 37
-57z m-1215 -13 c15 -12 52 -126 43 -135 -8 -8 -119 -31 -126 -26 -5 3 -11 21
-15 42 -4 20 -11 45 -16 56 -12 23 7 45 54 62 43 15 41 15 60 1z m837 -48 c-6
-19 -22 -74 -35 -124 -14 -49 -31 -112 -38 -140 -45 -162 -74 -291 -68 -297 4
-4 36 -14 72 -23 67 -17 101 -26 260 -70 165 -45 192 -52 302 -81 l107 -28 11
-48 c5 -27 10 -51 10 -53 0 -3 -106 -5 -235 -5 l-235 0 0 -299 0 -299 -27 -5
c-16 -3 -54 -13 -85 -21 -109 -30 -163 -45 -258 -71 -91 -25 -142 -39 -312
-84 -88 -24 -218 -59 -263 -71 -16 -5 -84 -23 -150 -40 -66 -18 -142 -38 -170
-45 -27 -8 -117 -31 -198 -53 l-148 -40 -10 25 c-5 13 -9 30 -9 36 0 7 -14 59
-31 117 -16 58 -44 157 -60 220 -17 63 -37 138 -44 165 -7 28 -27 104 -45 170
-17 66 -36 134 -40 150 -10 33 -63 230 -85 310 -7 28 -22 86 -34 129 -28 104
-27 114 7 122 15 3 59 14 97 25 39 10 122 33 185 49 63 17 144 39 180 50 36
10 79 22 95 26 28 6 314 82 585 156 63 17 156 42 205 55 50 13 149 40 220 60
72 19 153 40 182 47 28 6 55 15 59 19 13 13 14 2 3 -34z m-1110 -85 c21 -82
18 -88 -46 -102 -68 -14 -78 -7 -89 64 -7 48 -1 73 18 78 7 2 27 8 43 13 41
13 61 -2 74 -53z m-323 -32 c11 -7 49 -121 42 -127 -8 -7 -101 -35 -116 -35
-13 0 -22 16 -35 59 -10 32 -15 65 -12 73 11 27 94 48 121 30z m-278 -77 c9
-8 40 -140 34 -146 -4 -3 -25 -11 -47 -17 -22 -6 -49 -14 -61 -17 -19 -6 -22
-1 -33 47 -26 115 -28 106 20 128 36 16 72 18 87 5z m1904 -182 c14 -13 17
-25 12 -52 -4 -20 -10 -40 -15 -45 -5 -6 -9 -18 -9 -28 0 -12 -7 -18 -22 -18
-34 0 -113 26 -113 36 1 31 28 120 38 126 18 12 89 0 109 -19z m288 -56 c31
-15 36 -38 20 -91 -27 -90 -19 -85 -97 -66 -37 10 -68 22 -68 26 1 37 19 113
32 132 13 21 20 23 51 17 21 -4 48 -12 62 -18z m287 -92 c42 -8 46 -24 27
-101 -15 -59 -19 -65 -38 -59 -12 4 -33 9 -47 12 -48 9 -64 107 -23 148 9 8
24 14 33 11 9 -2 30 -7 48 -11z m321 -120 c4 -40 -21 -109 -41 -113 -17 -3
-85 13 -104 26 -17 11 5 113 29 134 18 16 22 16 66 0 40 -15 47 -22 50 -47z
m254 -17 c22 -6 43 -19 47 -27 5 -9 2 -44 -8 -83 -12 -53 -20 -68 -34 -68 -18
0 -117 30 -117 35 0 17 35 133 42 143 13 15 21 15 70 0z m335 -110 c14 -11 16
-39 7 -75 -6 -21 -12 -23 -75 -23 -59 0 -69 3 -69 18 0 30 19 85 32 94 16 11
87 1 105 -14z m-872 -49 c64 -16 77 -16 111 -4 60 22 104 18 148 -11 24 -17
34 -29 27 -33 -11 -7 -352 -3 -359 4 -10 9 -19 74 -10 69 5 -4 43 -15 83 -25z
m1137 -19 c62 -18 55 -30 -16 -30 -50 0 -66 3 -66 14 0 25 28 31 82 16z m-573
-134 c6 -4 11 -35 11 -72 l0 -65 -67 3 -68 3 0 65 c0 57 3 66 23 76 22 11 75
6 101 -10z m-915 -2 c3 -9 6 -47 6 -85 l0 -70 -67 3 -68 3 -3 68 c-2 42 2 74
9 83 17 20 115 19 123 -2z m206 -29 c0 -12 4 -25 9 -30 12 -13 18 -69 9 -72
-5 -2 -19 -3 -33 -3 -24 0 -25 2 -25 63 0 63 16 100 32 74 4 -6 8 -21 8 -32z
m399 31 c7 -9 11 -38 9 -73 l-3 -58 -65 0 -65 0 -3 58 c-4 74 7 87 68 87 29 0
52 -6 59 -14z m1215 -8 c-4 -13 -10 -38 -15 -56 -10 -44 -12 -46 -56 -35 -32
7 -39 13 -41 37 -2 16 -1 39 2 52 6 22 12 24 62 24 53 0 55 -1 48 -22z m-308
1 c12 -21 -11 -28 -49 -15 -20 7 -34 16 -30 19 10 11 71 8 79 -4z m642 -1 c7
-7 12 -41 12 -80 l0 -69 -67 3 -68 3 -3 64 c-2 51 0 66 15 77 22 17 95 18 111
2z m-977 -63 c61 -15 66 -18 61 -41 -2 -13 -12 -25 -21 -25 -17 -1 -89 -1
-107 0 -7 1 -14 21 -15 45 -3 26 0 42 6 41 6 -2 40 -10 76 -20z m656 -57 c-3
-8 -6 -5 -6 6 -1 11 2 17 5 13 3 -3 4 -12 1 -19z m-381 -26 c-16 -2 -35 3 -43
11 -13 13 -10 13 28 3 40 -10 41 -11 15 -14z m-1177 -124 c8 -27 12 -50 9 -53
-3 -3 -59 -19 -124 -36 -65 -17 -132 -35 -149 -39 -68 -20 -152 -42 -177 -47
l-28 -5 0 116 0 116 227 -2 227 -3 15 -47z m1811 -693 l0 -745 -1140 0 -1140
0 0 449 0 449 68 16 c37 9 110 28 162 42 130 36 176 48 315 85 66 17 121 33
123 34 2 2 -5 35 -42 183 -8 31 -24 86 -35 121 -12 35 -21 74 -21 87 l0 24
855 0 855 0 0 -745z m-1722 566 c12 -7 26 -47 39 -112 5 -25 2 -27 -57 -38
-35 -7 -66 -9 -70 -4 -12 13 -30 111 -24 128 10 24 87 43 112 26z m-264 -105
c2 -12 9 -38 14 -58 12 -46 6 -52 -66 -67 -66 -14 -62 -14 -62 4 0 8 -7 35
-15 60 -20 57 -10 76 47 91 49 12 73 3 82 -30z m-405 -133 c0 -61 -2 -73 -10
-54 -23 57 -27 101 -12 116 8 8 16 15 19 15 2 0 4 -35 3 -77z m-221 19 c9 -6
52 -129 52 -149 0 -4 -104 -33 -120 -33 -12 0 -22 18 -34 64 -21 75 -15 104
22 112 15 3 32 7 37 9 17 6 30 5 43 -3z m339 -59 c-3 -10 -5 -2 -5 17 0 19 2
27 5 18 2 -10 2 -26 0 -35z m-630 -41 c12 -8 32 -80 33 -117 0 -17 -10 -23
-60 -34 -34 -8 -63 -11 -67 -8 -12 12 -30 113 -23 132 10 28 87 46 117 27z
m-272 -104 c7 -18 16 -50 20 -70 7 -35 5 -37 -21 -43 -16 -4 -42 -11 -58 -16
-42 -13 -42 -14 -61 46 -28 90 -15 110 73 114 28 1 35 -4 47 -31z m-319 -36
c7 -4 20 -38 29 -76 19 -74 15 -85 -30 -86 -11 -1 -37 -7 -58 -14 -43 -16 -41
-19 -70 81 -14 48 -14 53 3 68 30 27 102 43 126 27z m-270 -158 c8 -30 14 -61
11 -68 -5 -13 -116 -40 -126 -30 -3 3 -13 31 -21 63 -19 66 -13 78 50 97 49
15 67 2 86 -62z m3522 -776 c7 -7 12 -40 12 -79 0 -75 -3 -79 -75 -79 -60 0
-73 16 -70 84 2 30 9 62 17 70 16 18 99 21 116 4z m296 -5 c3 -10 6 -45 7 -78
l3 -60 -70 0 -69 0 0 61 c0 78 13 94 76 94 37 0 49 -4 53 -17z"/>
</g>
</svg>
